# xmcd
#
# Track frame offsets: 
#        150
#        19535
#        41915
#        63497
#        85427
#        107692
#        122290
#        141080
#
# Disc length: 2264 seconds
#
# Revision: 0
# Processed by: cddbd v1.5.2PL0 Copyright (c) Steve Scherf et al.
# Submitted via: ExactAudioCopy v0.99pb4
#
DISCID=6508d608
DTITLE=The Dells - Whatever Turns You On
DYEAR=1981
DGENRE=Soul
TTITLE0=Happy Song
TTITLE1=It Took A Woman Like You To Make A Man Out Of Me
TTITLE2=Whatever Turns You On
TTITLE3=How Can We Find The Love We Lost When We Don't Know How It Got
TTITLE3=Away
TTITLE4=Ain't It A Shame
TTITLE5=(Every Time I Hold You) Heaven's Just A Step Away
TTITLE6=Is It It
TTITLE7=Stay In My Corner
EXTD=
EXTT0=
EXTT1=
EXTT2=
EXTT3=
EXTT4=
EXTT5=
EXTT6=
EXTT7=
PLAYORDER=
